<?xml version="1.0" encoding="utf-8"?>
<!-- Generator: Adobe Illustrator 27.9.0, SVG Export Plug-In . SVG Version: 6.00 Build 0)  -->
<!DOCTYPE svg PUBLIC "-//W3C//DTD SVG 1.1//EN" "http://www.w3.org/Graphics/SVG/1.1/DTD/svg11.dtd" [
	<!ENTITY ns_extend "http://ns.adobe.com/Extensibility/1.0/">
	<!ENTITY ns_ai "http://ns.adobe.com/AdobeIllustrator/10.0/">
	<!ENTITY ns_graphs "http://ns.adobe.com/Graphs/1.0/">
	<!ENTITY ns_vars "http://ns.adobe.com/Variables/1.0/">
	<!ENTITY ns_imrep "http://ns.adobe.com/ImageReplacement/1.0/">
	<!ENTITY ns_sfw "http://ns.adobe.com/SaveForWeb/1.0/">
	<!ENTITY ns_custom "http://ns.adobe.com/GenericCustomNamespace/1.0/">
	<!ENTITY ns_adobe_xpath "http://ns.adobe.com/XPath/1.0/">
]>
<svg version="1.1" id="Layer_1" xmlns:x="&ns_extend;" xmlns:i="&ns_ai;" xmlns:graph="&ns_graphs;"
	 xmlns="http://www.w3.org/2000/svg" xmlns:xlink="http://www.w3.org/1999/xlink" x="0px" y="0px" viewBox="0 0 80 80"
	 style="enable-background:new 0 0 80 80;" xml:space="preserve">
<style type="text/css">
	.st0{fill:#FFFFFF;}
</style>
<metadata>
	<sfw  xmlns="&ns_sfw;">
		<slices></slices>
		<sliceSourceBounds  bottomLeftOrigin="true" height="74" width="66.9" x="5" y="-78"></sliceSourceBounds>
	</sfw>
</metadata>
<g>
	<path class="st0" d="M63.8,53.7c0.2,0.1,0.3,0.1,0.4,0.2c0.6,0.3,1.3,0.6,1.9,0.9c1.3,0.6,2.6,1.2,4,1.8c0.8,0.4,1.5,0,1.7-0.7
		c0.1-0.5-0.2-1-0.8-1.2c-2.3-1-4.6-2.1-6.9-3.1c-0.4-0.2-0.6-0.4-0.8-0.8c-1.6-3.5-1.8-7.2-1.3-11c0.4-2.4,1.1-4.7,2-6.9
		c0.1-0.2,0.2-0.3,0.4-0.4c1.4-0.5,2.8-1.1,4.2-1.6c0.7-0.2,1-0.8,0.7-1.4c-0.2-0.6-0.8-0.8-1.5-0.6c-1.5,0.6-2.9,1.1-4.4,1.7
		c-0.1,0-0.3,0.1-0.4,0c-2.8-0.9-5.3-2.3-7.4-4.3c-2.6-2.5-4.2-5.6-5.2-9.1c0-0.1,0-0.3,0.1-0.4c0.5-1.2,1-2.4,1.6-3.5
		c1.1-2.5,2.2-4.9,3.3-7.4C55.7,5,55.5,4.4,55,4.1c-0.6-0.3-1.2,0-1.4,0.6c-0.3,0.7-0.6,1.4-1,2.1c-1.3,2.9-2.6,5.7-3.8,8.6
		c-0.1,0.2-0.2,0.3-0.4,0.4c-1.8,0.4-3.7,0.6-5.5,0.7c-4.3,0.2-8.5-0.2-12.7-1.2c-0.2-0.1-0.4-0.2-0.4-0.4c-0.1-0.3-0.2-0.6-0.4-0.9
		c-0.5-1.2-0.9-2.4-1.4-3.6c-0.2-0.4-0.5-0.6-1-0.7c-0.4,0-0.8,0.2-1,0.6c-0.2,0.3-0.1,0.7,0,1c0.6,1.5,1.2,3,1.7,4.6
		c0,0.1,0.1,0.3,0,0.4c-0.5,1.9-1.2,3.6-2.3,5.3c-0.4,0.6-0.3,1.3,0.2,1.6c0.5,0.3,1.2,0.2,1.6-0.5c0.6-1,1.1-2.1,1.6-3.1
		c0-0.1,0.1-0.1,0.1-0.2c0,0,0.1,0,0.1,0.1c0.8,2,1.5,4.1,2.3,6.1c0,0.1,0,0.2,0,0.3c-0.4,1.8-1.2,3.4-2.5,4.7
		c-1.4,1.4-3.1,2.2-5.1,2.5c-0.2,0-0.5,0.1-0.7,0c-1.8-0.8-3.7-1.6-5.5-2.5c-0.1,0-0.1-0.1-0.3-0.2c0.2-0.1,0.3-0.1,0.4-0.1
		c0.8-0.4,1.7-0.7,2.5-1.1c0.3-0.1,0.5-0.4,0.6-0.7c0.1-0.4,0-0.8-0.4-1.1c-0.4-0.3-0.8-0.3-1.2-0.1c-1.5,0.8-3.2,1.4-4.8,1.8
		c-0.1,0-0.3,0-0.4,0c-1.6-0.7-3.1-1.4-4.7-2.1c-0.9-0.4-1.9-0.9-2.8-1.3c-0.4-0.2-0.8-0.1-1.1,0.2C5,26,4.9,26.4,5,26.8
		c0.1,0.4,0.4,0.6,0.8,0.8c2.4,1.1,4.8,2.1,7.1,3.2c0.2,0.1,0.3,0.2,0.4,0.4c0.7,1.4,1.3,2.8,1.7,4.3c0.6,2.1,0.7,4.3,0.5,6.5
		c-0.3,2.7-1.2,5.2-2.7,7.5c-0.1,0.1-0.2,0.2-0.4,0.3c-0.6,0.2-1.2,0.5-1.8,0.7c-1.2,0.5-2.4,0.9-3.6,1.4c-0.4,0.2-0.6,0.4-0.7,0.9
		c0,0.4,0.1,0.8,0.4,1c0.4,0.2,0.7,0.2,1.1,0.1c1.7-0.7,3.5-1.3,5.2-2c0.2-0.1,0.4-0.1,0.5,0c2.4,0.8,4.7,1.8,6.7,3.3
		c3.3,2.5,5.4,5.8,6,10c0,0.1,0,0.3-0.1,0.4c-0.4,1-0.9,2-1.4,3.1c-0.7,1.5-1.3,3-2,4.4c-0.3,0.7,0.1,1.5,0.8,1.6
		c0.5,0.1,0.9-0.2,1.2-0.8c1-2.3,2.1-4.6,3.1-7c0.1-0.3,0.3-0.4,0.5-0.4c1.3-0.2,2.7-0.4,4-0.5c4.8-0.4,9.5-0.1,14.2,1
		c0.2,0,0.3,0.1,0.4,0.3c1,2.7,2,5.3,3,8c0.3,0.7,0.5,1.4,0.8,2c0.3,0.9,1.3,1.1,1.9,0.4c0.3-0.4,0.3-0.8,0.1-1.2
		c-1.3-3.3-2.5-6.7-3.8-10c-0.1-0.1,0-0.3,0-0.5c0.7-1.4,1.5-2.7,2.4-3.9c0.4-0.5,0.3-1.2-0.2-1.5c-0.5-0.4-1.2-0.2-1.5,0.3
		c-0.5,0.8-1,1.6-1.5,2.3c-0.1,0.1-0.1,0.2-0.2,0.3c-0.1-0.1-0.1-0.2-0.2-0.3c-0.7-1.9-1.4-3.7-2.1-5.6c-0.1-0.1,0-0.4,0-0.5
		c0.6-0.9,1.1-1.9,1.7-2.7c1.6-2.1,3.5-3.8,5.9-4.9c0.2-0.1,0.4-0.1,0.6,0c1.7,0.8,3.4,1.5,5.1,2.3c0.3,0.1,0.6,0.3,0.9,0.4
		c-0.2,0.1-0.4,0.2-0.6,0.3c-0.8,0.4-1.5,0.9-2.3,1.3c-0.7,0.4-0.7,1.4,0,1.8c0.4,0.2,0.8,0.2,1.2,0c0.9-0.5,1.7-1,2.6-1.5
		c0.2-0.1,0.4-0.2,0.7-0.3c0,0.2,0,0.3,0,0.4c0,4.1,0,8.1,0,12.2c0,0.1,0,0.2,0,0.2c0.1,0.7,0.7,1.1,1.3,0.9
		c0.5-0.1,0.8-0.5,0.8-1.2c0-3.8,0-7.7,0-11.5C63.8,54.4,63.8,54.1,63.8,53.7z"/>
	<path d="M63.8,53.7c0,0.4,0,0.7,0,1.1c0,3.8,0,7.7,0,11.5c0,0.6-0.3,1-0.8,1.2c-0.6,0.2-1.3-0.3-1.3-0.9c0-0.1,0-0.2,0-0.2
		c0-4.1,0-8.1,0-12.2c0-0.1,0-0.2,0-0.4c-0.3,0.1-0.5,0.2-0.7,0.3c-0.9,0.5-1.7,1-2.6,1.5c-0.4,0.2-0.8,0.3-1.2,0
		c-0.7-0.4-0.7-1.4,0-1.8c0.7-0.5,1.5-0.9,2.3-1.3c0.2-0.1,0.3-0.2,0.6-0.3c-0.4-0.2-0.7-0.3-0.9-0.4c-1.7-0.8-3.4-1.5-5.1-2.3
		c-0.2-0.1-0.4-0.1-0.6,0c-2.4,1.1-4.4,2.8-5.9,4.9c-0.6,0.9-1.2,1.8-1.7,2.7c-0.1,0.1-0.1,0.3,0,0.5c0.7,1.9,1.4,3.7,2.1,5.6
		c0,0.1,0.1,0.2,0.2,0.3c0.1-0.1,0.1-0.2,0.2-0.3c0.5-0.8,1-1.6,1.5-2.3c0.4-0.5,1-0.7,1.5-0.3c0.5,0.3,0.6,1,0.2,1.5
		c-0.9,1.2-1.7,2.5-2.4,3.9c-0.1,0.1-0.1,0.3,0,0.5c1.3,3.3,2.5,6.7,3.8,10c0.2,0.4,0.2,0.9-0.1,1.2c-0.6,0.7-1.5,0.5-1.9-0.4
		c-0.3-0.7-0.5-1.4-0.8-2c-1-2.7-2-5.3-3-8c-0.1-0.2-0.2-0.3-0.4-0.3c-4.7-1.1-9.4-1.4-14.2-1c-1.3,0.1-2.7,0.3-4,0.5
		c-0.3,0-0.4,0.2-0.5,0.4c-1,2.3-2.1,4.6-3.1,7c-0.3,0.6-0.7,0.8-1.2,0.8c-0.7-0.1-1.1-0.8-0.8-1.6c0.7-1.5,1.3-3,2-4.4
		c0.5-1,0.9-2,1.4-3.1c0.1-0.1,0.1-0.3,0.1-0.4c-0.6-4.2-2.6-7.4-6-10c-2-1.5-4.3-2.5-6.7-3.3c-0.2,0-0.4,0-0.5,0
		c-1.7,0.7-3.5,1.3-5.2,2c-0.4,0.1-0.8,0.2-1.1-0.1c-0.4-0.2-0.5-0.6-0.4-1c0-0.4,0.3-0.7,0.7-0.9c1.2-0.5,2.4-0.9,3.6-1.4
		c0.6-0.2,1.2-0.4,1.8-0.7c0.1-0.1,0.3-0.2,0.4-0.3c1.4-2.3,2.3-4.8,2.7-7.5c0.3-2.2,0.1-4.4-0.5-6.5c-0.4-1.5-0.9-2.9-1.7-4.3
		c-0.1-0.2-0.3-0.3-0.4-0.4c-2.4-1.1-4.8-2.1-7.1-3.2c-0.4-0.2-0.7-0.4-0.8-0.8c-0.1-0.4,0-0.8,0.3-1.1c0.3-0.3,0.7-0.4,1.1-0.2
		c0.9,0.4,1.9,0.8,2.8,1.3c1.6,0.7,3.1,1.4,4.7,2.1c0.1,0.1,0.3,0.1,0.4,0c1.7-0.4,3.3-1,4.8-1.8c0.4-0.2,0.8-0.2,1.2,0.1
		c0.4,0.3,0.5,0.7,0.4,1.1c-0.1,0.3-0.3,0.6-0.6,0.7c-0.8,0.4-1.7,0.7-2.5,1.1c-0.1,0-0.2,0.1-0.4,0.1c0.1,0.1,0.2,0.1,0.3,0.2
		c1.8,0.8,3.7,1.7,5.5,2.5c0.2,0.1,0.5,0.1,0.7,0c1.9-0.3,3.7-1.1,5.1-2.5c1.3-1.3,2.1-2.9,2.5-4.7c0-0.1,0-0.2,0-0.3
		c-0.8-2-1.5-4.1-2.3-6.1c0,0,0,0-0.1-0.1c0,0.1-0.1,0.1-0.1,0.2c-0.5,1-1.1,2.1-1.6,3.1c-0.4,0.6-1,0.8-1.6,0.5
		c-0.5-0.3-0.6-1-0.2-1.6c1-1.6,1.8-3.4,2.3-5.3c0-0.1,0-0.3,0-0.4c-0.6-1.5-1.1-3-1.7-4.6c-0.1-0.4-0.2-0.7,0-1
		c0.2-0.4,0.5-0.6,1-0.6c0.4,0,0.8,0.2,1,0.7c0.5,1.2,0.9,2.4,1.4,3.6c0.1,0.3,0.3,0.6,0.4,0.9c0.1,0.2,0.2,0.3,0.4,0.4
		c4.2,1,8.4,1.4,12.7,1.2c1.9-0.1,3.7-0.3,5.5-0.7c0.2,0,0.3-0.2,0.4-0.4c1.3-2.9,2.6-5.7,3.8-8.6c0.3-0.7,0.6-1.4,1-2.1
		c0.3-0.6,0.9-0.9,1.4-0.6c0.6,0.3,0.8,0.9,0.5,1.5c-1.1,2.5-2.2,4.9-3.3,7.4c-0.5,1.2-1.1,2.4-1.6,3.5c0,0.1-0.1,0.3-0.1,0.4
		c1,3.5,2.6,6.5,5.2,9.1c2.1,2.1,4.6,3.5,7.4,4.3c0.1,0,0.3,0,0.4,0c1.5-0.5,2.9-1.1,4.4-1.7c0.6-0.2,1.3,0,1.5,0.6
		c0.2,0.6-0.1,1.2-0.7,1.4c-1.4,0.5-2.8,1.1-4.2,1.6c-0.2,0.1-0.3,0.2-0.4,0.4c-0.9,2.2-1.6,4.5-2,6.9c-0.6,3.8-0.3,7.5,1.3,11
		c0.2,0.4,0.4,0.7,0.8,0.8c2.3,1,4.6,2,6.9,3.1c0.6,0.3,0.9,0.7,0.8,1.2c-0.1,0.8-0.9,1.1-1.7,0.7c-1.3-0.6-2.6-1.2-4-1.8
		c-0.6-0.3-1.3-0.6-1.9-0.9C64.2,53.8,64,53.7,63.8,53.7z M47.5,18.1c-5.7,0.9-11.3,0.7-16.8-0.5c0,0.1,0.1,0.2,0.1,0.3
		c0.8,2.2,1.7,4.4,2.5,6.6c0.1,0.1,0.2,0.3,0.3,0.3c1.1,0.4,2.2,0.7,3.3,0.9c2.4,0.4,4.8,0.1,7.1-0.6c0.2-0.1,0.3-0.2,0.4-0.4
		c0.8-1.7,1.5-3.4,2.3-5.1C47,19.2,47.2,18.7,47.5,18.1z M46.1,64.5c0-0.1,0-0.1,0-0.2c-0.8-2.1-1.6-4.2-2.4-6.3
		c0-0.1-0.1-0.2-0.2-0.2c-1.5-0.9-3.1-1.4-4.8-1.6c-2.2-0.2-4.2,0.3-6.2,1.2c-0.2,0.1-0.3,0.3-0.4,0.4c-0.9,2-1.8,3.9-2.6,5.9
		c0,0.1-0.1,0.2-0.1,0.3C34.9,63.3,40.5,63.3,46.1,64.5z M61.4,33.5c-0.1,0-0.1,0-0.2,0c-2.1,0.8-4.2,1.6-6.4,2.4
		c-0.1,0-0.2,0.1-0.3,0.2c-1,1.5-1.7,3.1-1.8,4.9c-0.2,2.2,0.5,4.1,1.6,5.9c0.1,0.1,0.2,0.2,0.3,0.3c1.9,0.9,3.8,1.7,5.7,2.6
		c0.1,0,0.1,0,0.3,0.1c-0.9-2.7-1.2-5.4-1-8.2C59.8,38.8,60.5,36.1,61.4,33.5z M15.8,48.4c0.2,0,0.3-0.1,0.3-0.1
		c1.6-0.6,3.3-1.3,4.9-1.9c0.8-0.3,1.2-0.7,1.6-1.4c1.5-3.3,1.5-6.6-0.2-9.8c-0.1-0.1-0.2-0.3-0.4-0.4c-1.6-0.7-3.2-1.5-4.8-2.2
		c-0.3-0.1-0.6-0.3-1-0.5C18.4,37.7,18.3,43.1,15.8,48.4z M60.2,31.5c-5.4-2.4-8.9-6.4-11.1-11.8C49.1,19.9,49,20,49,20
		c-0.9,1.9-1.7,3.8-2.6,5.7c-0.1,0.1,0,0.3,0,0.5c1.5,3.4,4.1,5.9,7.4,7.6c0.1,0.1,0.3,0,0.4,0c1.8-0.7,3.6-1.4,5.4-2.1
		C59.9,31.7,60,31.6,60.2,31.5z M27.9,61.9c0.1-0.1,0.1-0.2,0.1-0.2c0.7-1.6,1.4-3.1,2.1-4.7c0.1-0.1,0-0.3,0-0.5
		c-0.6-1.5-1.4-2.9-2.4-4.2c-1.2-1.6-2.7-3-4.5-4c-0.2-0.1-0.5-0.2-0.7-0.1c-1.5,0.6-2.9,1.1-4.4,1.7c-0.5,0.2-0.9,0.4-1.5,0.6
		C21.9,52.8,26,56.2,27.9,61.9z M40.4,43.1C40.4,43.1,40.4,43.2,40.4,43.1c1.4,3.8,2.8,7.6,4.2,11.4c1.7-2.7,3.8-4.9,6.6-6.6
		C47.6,46.3,44,44.7,40.4,43.1z M36.3,43.1C36.3,43.1,36.3,43,36.3,43.1c-3.7,1.3-7.3,2.7-10.9,4.1c1.3,0.9,2.4,2,3.4,3.1
		c1,1.2,1.8,2.5,2.6,3.9C33,50.4,34.7,46.7,36.3,43.1z M42.5,54.9c-1.4-3.7-2.8-7.3-4.2-11c0,0-0.1,0-0.1,0
		c-1.6,3.5-3.2,7.1-4.8,10.6c0,0,0,0.1,0.1,0.1C36.5,53.7,39.5,53.8,42.5,54.9z M51.4,34.9c-2.6-1.6-4.7-3.7-6.3-6.4
		c-1.6,3.5-3.1,7-4.7,10.5c0,0,0.1,0,0.1,0.1C44.2,37.7,47.8,36.3,51.4,34.9z M34.4,27.4c1.4,3.6,2.7,7.2,4.1,10.7c0,0,0.1,0,0.1,0
		c1.6-3.5,3.1-6.9,4.7-10.5C40.2,28.3,37.3,28.3,34.4,27.4z M25.4,36.4C25.4,36.4,25.4,36.4,25.4,36.4c0.4,1.4,0.6,2.8,0.5,4.3
		c0,1.5-0.4,2.9-0.9,4.3c3.5-1.3,7-2.7,10.4-4c0,0,0-0.1,0-0.1C32.1,39.4,28.8,37.9,25.4,36.4z M51.3,45.6
		C51.3,45.6,51.3,45.6,51.3,45.6c-1-2.9-0.9-5.6,0.3-8.5c-3.5,1.3-6.9,2.6-10.3,3.9c0,0,0,0.1,0,0.1C44.6,42.7,48,44.1,51.3,45.6z
		 M32.6,28.9C32.6,28.9,32.6,28.9,32.6,28.9c-1.4,2.6-3.4,4.5-6.1,5.5c0,0,0,0.1,0,0.1c3.3,1.5,6.5,2.9,9.8,4.4c0,0,0,0,0.1-0.1
		C35.2,35.6,33.9,32.2,32.6,28.9z"/>
	<path class="st0" d="M47.5,18.1c-0.3,0.6-0.5,1.1-0.7,1.6c-0.8,1.7-1.5,3.4-2.3,5.1c-0.1,0.2-0.2,0.3-0.4,0.4
		c-2.3,0.7-4.7,1-7.1,0.6c-1.1-0.2-2.3-0.5-3.3-0.9c-0.1-0.1-0.3-0.2-0.3-0.3c-0.9-2.2-1.7-4.4-2.5-6.6c0-0.1-0.1-0.2-0.1-0.3
		C36.2,18.8,41.8,19,47.5,18.1z"/>
	<path class="st0" d="M46.1,64.5c-5.6-1.1-11.2-1.2-16.8-0.4c0-0.1,0.1-0.2,0.1-0.3c0.9-2,1.8-3.9,2.6-5.9c0.1-0.2,0.2-0.3,0.4-0.4
		c2-0.9,4-1.4,6.2-1.2c1.7,0.1,3.3,0.7,4.8,1.6c0.1,0.1,0.2,0.1,0.2,0.2c0.8,2.1,1.6,4.2,2.4,6.3C46.1,64.4,46.1,64.4,46.1,64.5z"/>
	<path class="st0" d="M61.4,33.5c-0.9,2.7-1.6,5.3-1.8,8.1c-0.2,2.8,0.1,5.5,1,8.2c-0.1,0-0.2,0-0.3-0.1c-1.9-0.9-3.8-1.7-5.7-2.6
		c-0.1-0.1-0.2-0.1-0.3-0.3c-1.1-1.8-1.8-3.7-1.6-5.9c0.1-1.8,0.8-3.4,1.8-4.9c0.1-0.1,0.2-0.2,0.3-0.2c2.1-0.8,4.2-1.6,6.4-2.4
		C61.3,33.5,61.3,33.5,61.4,33.5z"/>
	<path class="st0" d="M15.8,48.4c2.4-5.3,2.6-10.7,0.4-16.2c0.4,0.2,0.7,0.3,1,0.5c1.6,0.7,3.2,1.5,4.8,2.2c0.2,0.1,0.3,0.2,0.4,0.4
		c1.7,3.2,1.7,6.5,0.2,9.8c-0.3,0.7-0.8,1.2-1.6,1.4c-1.7,0.6-3.3,1.2-4.9,1.9C16.1,48.4,16,48.4,15.8,48.4z"/>
	<path class="st0" d="M60.2,31.5c-0.2,0.1-0.4,0.2-0.5,0.2c-1.8,0.7-3.6,1.4-5.4,2.1c-0.1,0-0.3,0-0.4,0c-3.3-1.7-5.9-4.1-7.4-7.6
		c-0.1-0.1-0.1-0.4,0-0.5c0.8-1.9,1.7-3.8,2.6-5.7c0-0.1,0.1-0.2,0.2-0.3C51.3,25.1,54.9,29.1,60.2,31.5z"/>
	<path class="st0" d="M27.9,61.9c-1.9-5.7-5.9-9.1-11.3-11.4c0.6-0.2,1-0.4,1.5-0.6c1.5-0.6,2.9-1.1,4.4-1.7
		c0.3-0.1,0.5-0.1,0.7,0.1c1.8,1,3.3,2.3,4.5,4c1,1.3,1.8,2.7,2.4,4.2c0.1,0.1,0.1,0.4,0,0.5c-0.7,1.6-1.4,3.1-2.1,4.7
		C27.9,61.7,27.9,61.7,27.9,61.9z"/>
	<path class="st0" d="M40.4,43.1c3.6,1.6,7.1,3.2,10.8,4.9c-2.8,1.6-4.9,3.9-6.6,6.6C43.2,50.7,41.8,47,40.4,43.1
		C40.4,43.2,40.4,43.1,40.4,43.1z"/>
	<path class="st0" d="M36.3,43.1c-1.6,3.7-3.3,7.3-5,11.1c-0.8-1.4-1.6-2.7-2.6-3.9c-1-1.2-2.1-2.2-3.4-3.1
		C29,45.7,32.6,44.4,36.3,43.1C36.3,43,36.3,43.1,36.3,43.1z"/>
	<path class="st0" d="M42.5,54.9c-3-1.1-6-1.2-9-0.2c0,0,0-0.1-0.1-0.1c1.6-3.5,3.2-7.1,4.8-10.6c0,0,0.1,0,0.1,0
		C39.7,47.6,41.1,51.2,42.5,54.9z"/>
	<path class="st0" d="M51.4,34.9c-3.7,1.4-7.3,2.8-10.9,4.1c0,0-0.1,0-0.1-0.1c1.6-3.5,3.1-6.9,4.7-10.5
		C46.7,31.2,48.8,33.3,51.4,34.9z"/>
	<path class="st0" d="M34.4,27.4c3,0.8,5.9,0.9,8.9,0.2c-1.6,3.6-3.1,7-4.7,10.5c0,0-0.1,0-0.1,0C37.1,34.6,35.8,31.1,34.4,27.4z"/>
	<path class="st0" d="M25.4,36.4c3.4,1.5,6.7,3,10.1,4.5c0,0,0,0.1,0,0.1c-3.4,1.3-6.9,2.6-10.4,4c0.5-1.4,0.8-2.8,0.9-4.3
		C26,39.2,25.8,37.8,25.4,36.4C25.4,36.4,25.4,36.4,25.4,36.4z"/>
	<path class="st0" d="M51.3,45.6c-3.3-1.5-6.6-3-10-4.5c0,0,0-0.1,0-0.1c3.4-1.3,6.8-2.6,10.3-3.9C50.4,40,50.3,42.8,51.3,45.6
		C51.3,45.6,51.3,45.6,51.3,45.6z"/>
	<path class="st0" d="M32.6,28.9c1.3,3.3,2.5,6.6,3.8,10c0,0,0,0-0.1,0.1c-3.3-1.5-6.5-2.9-9.8-4.4c0,0,0-0.1,0-0.1
		C29.3,33.4,31.3,31.6,32.6,28.9C32.6,28.9,32.6,28.9,32.6,28.9z"/>
</g>
</svg>
